{"title":"Inteha 2003 hindi By SamShah","uid":8880888,"size":1195509258,"categoryP":"video","categoryS":"movies","magnet":"?xt=urn:btih:06b968873fdec137fceed98e8eb215b56cb97a4a&amp;dn=Inteha+2003+hindi+By+SamShah&amp;tr=udp%3A%2F%2Ftracker.openbittorrent.com%3A80&amp;tr=udp%3A%2F%2Fopen.demonii.com%3A1337&amp;tr=udp%3A%2F%2Ftracker.coppersurfer.tk%3A6969&amp;tr=udp%3A%2F%2Fexodus.desync.com%3A6969","seeders":3,"leechers":2,"uploader":"olddilli","files":1,"time":1378319029,"description":"Complete name                            : Inteha (2003)\nFormat                                   : MPEG-4\nFormat profile                           : Base Media\nCodec ID                                 : isom\nFile size                                : 1.11 GiB\nDuration                                 : 2h 22mn\nOverall bit rate                         : 1 116 Kbps\nEncoded date                             : UTC 2013-08-29 14:25:58\nTagged date                              : UTC 2013-08-29 14:25:58\n\nVideo\nID                                       : 2\nFormat                                   : MPEG-4 Visual\nFormat settings, BVOP                    : Yes\nFormat settings, QPel                    : No\nFormat settings, GMC                     : No warppoints\nFormat settings, Matrix                  : Default (H.263)\nCodec ID                                 : 20\nDuration                                 : 2h 22mn\nBit rate mode                            : Constant\nBit rate                                 : 1 000 Kbps\nWidth                                    : 640 pixels\nHeight                                   : 360 pixels\nDisplay aspect ratio                     : 16:9\nFrame rate mode                          : Constant\nFrame rate                               : 25.000 fps\nColor space                              : YUV\nBit depth                                : 8 bits\nScan type                                : Progressive\nCompression mode                         : Lossy\nBits/(Pixel*Frame)                       : 0.174\nStream size                              : 1 022 MiB (90%)\nWriting library                          : Intel(R) MPEG-4 encoder based on Intel(R) IPP 6.1 build 137.20[6.1.137.763]\nLanguage                                 : English\n\nAudio\nID                                       : 1\nFormat                                   : AAC\nFormat/Info                              : Advanced Audio Codec\nFormat profile                           : LC\nCodec ID                                 : 40\nDuration                                 : 2h 22mn\nBit rate mode                            : Constant\nBit rate                                 : 111 Kbps\nChannel(s)                               : 2 channels\nChannel positions                        : Front: L R\nSampling rate                            : 44.1 KHz\nCompression mode                         : Lossy\nStream size                              : 113 MiB (10%)\nLanguage                                 : English\n\n","torrent":{"xt":"urn:btih:06b968873fdec137fceed98e8eb215b56cb97a4a","amp;dn":"Inteha+2003+hindi+By+SamShah","amp;tr":["udp%3A%2F%2Ftracker.openbittorrent.com%3A80","udp%3A%2F%2Fopen.demonii.com%3A1337","udp%3A%2F%2Ftracker.coppersurfer.tk%3A6969","udp%3A%2F%2Fexodus.desync.com%3A6969"],"infoHash":"06b968873fdec137fceed98e8eb215b56cb97a4a","infoHashBuffer":{"type":"Buffer","data":[6,185,104,135,63,222,193,55,252,238,217,142,142,178,21,181,108,185,122,74]},"announce":[],"urlList":[]}}